<svg width="30" height="27" viewBox="0 0 30 27" fill="none" xmlns="http://www.w3.org/2000/svg">
<path fill-rule="evenodd" clip-rule="evenodd" d="M4.9 5.5H25.1V7L25.107 5.50002C25.7177 5.50288 26.3063 5.72802 26.763 6.13333C27.2197 6.53864 27.5132 7.09639 27.5885 7.70233L27.5909 7.72211L29.3655 23.7187C29.3656 23.7194 29.3656 23.7201 29.3657 23.7209C29.4048 24.0687 29.3704 24.4209 29.2648 24.7546C29.1589 25.0889 28.9839 25.3973 28.751 25.6596C28.5182 25.9219 28.2328 26.1323 27.9133 26.2771C27.5938 26.4219 27.2475 26.4978 26.8967 26.5L26.8875 26.5H3.10328C2.75254 26.4978 2.40618 26.4219 2.08671 26.2771C1.76724 26.1323 1.48181 25.9219 1.24897 25.6596C1.01614 25.3973 0.841096 25.0889 0.735234 24.7546C0.629599 24.4209 0.595209 24.0687 0.634279 23.7209C0.634362 23.7202 0.634445 23.7195 0.634529 23.7187L2.40915 7.72211L2.41148 7.70233C2.48685 7.09639 2.78031 6.53864 3.237 6.13333C3.69369 5.72801 4.28236 5.50288 4.89296 5.50002L4.9 5.5ZM24.6588 8.5H5.34126L3.67719 23.5H26.3228L24.6588 8.5Z" fill="white"/>
<path fill-rule="evenodd" clip-rule="evenodd" d="M15 3.5C14.0717 3.5 13.1815 3.86875 12.5251 4.52513C11.8687 5.1815 11.5 6.07174 11.5 7V11C11.5 11.8284 10.8284 12.5 10 12.5C9.17157 12.5 8.5 11.8284 8.5 11V7C8.5 5.27609 9.18482 3.62279 10.4038 2.40381C11.6228 1.18482 13.2761 0.5 15 0.5C16.7239 0.5 18.3772 1.18482 19.5962 2.40381C20.8152 3.62279 21.5 5.27609 21.5 7V11C21.5 11.8284 20.8284 12.5 20 12.5C19.1716 12.5 18.5 11.8284 18.5 11V7C18.5 6.07174 18.1313 5.1815 17.4749 4.52513C16.8185 3.86875 15.9283 3.5 15 3.5Z" fill="white"/>
</svg>
